<svg xmlns="http://www.w3.org/2000/svg" xmlns:xlink="http://www.w3.org/1999/xlink" viewBox="0 0 284.46 284.46"><defs><style>.cls-1{fill:#1d1d1b;stroke:#fff;stroke-miterlimit:10;}.cls-2{fill:url(#Degradado_sin_nombre_2);}.cls-3{fill:url(#Degradado_sin_nombre_9);}.cls-4{fill:url(#Degradado_sin_nombre_260);}.cls-5{fill:url(#Degradado_sin_nombre_260-2);}.cls-6{fill:url(#Degradado_sin_nombre_9-2);}.cls-7{fill:#fabb10;}.cls-8{fill:#ec6c1c;}.cls-9{fill:#fff;}</style><linearGradient id="Degradado_sin_nombre_2" x1="72.22" y1="130.38" x2="266.61" y2="130.38" gradientUnits="userSpaceOnUse"><stop offset="0.06" stop-color="#70210d"/><stop offset="0.63" stop-color="#dc0c15"/></linearGradient><linearGradient id="Degradado_sin_nombre_9" x1="208.43" y1="228.82" x2="208.43" y2="80.81" gradientUnits="userSpaceOnUse"><stop offset="0" stop-color="#dc0c15"/><stop offset="0.86" stop-color="#70210d"/></linearGradient><linearGradient id="Degradado_sin_nombre_260" x1="77.15" y1="228.82" x2="77.15" y2="81.09" gradientUnits="userSpaceOnUse"><stop offset="0" stop-color="#70210d"/><stop offset="0.7" stop-color="#dc0c15"/></linearGradient><linearGradient id="Degradado_sin_nombre_260-2" x1="94.09" y1="228.82" x2="94.09" y2="33.08" xlink:href="#Degradado_sin_nombre_260"/><linearGradient id="Degradado_sin_nombre_9-2" x1="191.37" y1="228.82" x2="191.37" y2="33.25" xlink:href="#Degradado_sin_nombre_9"/></defs><g id="Layer_2" data-name="Layer 2"><g id="Capa_1" data-name="Capa 1"><rect class="cls-1" x="0.5" y="0.5" width="283.46" height="283.46"/><path class="cls-2" d="M274.4,80.84s-.8,20.31-28.57,41.24c-4.9,3.69-16.78,8.51-29.35,12.55,41-30.65,17.61-101.3,17.61-101.3S242.33,64.27,191.6,106c-15.41,12.68-22.46,21.38-30.07,29.32-3.4,3.54-6.2.95-9.89-7.1-2.74-6-4-15.58,3.06-13.76,6,1.54,7.37,3.28,7.64,3.76a.13.13,0,0,0,.23,0c.22-.3.35-1.37-.07-5.31-.62-5.71-7.24-11.22-9.83-12.91s-10.34-11.79-12.93-20.19c0,0,10.5,23.29,3.57,24.52a26.7,26.7,0,0,0-8.61,14.55c-1.91,8.48-4.66,13.45-7.39,16.43-.75.82-2.31,1.07-3.93-1-6.58-8.46-15-17.29-28.4-28.3C44.24,64.27,52.44,33.19,52.44,33.19s-25.57,79.11,25,106.64c-15.57-5.7-31.19-13.56-36.74-17.75C13,101.15,12.18,80.84,12.18,80.84S7.17,150,72,176.36c54.67,22.24,67.65,44.76,70.25,51.17l.29,0c2.25-5.32,15.26-28.08,72.11-51.21C279.41,150,274.4,80.84,274.4,80.84Z"/><path class="cls-3" d="M214.51,176.48C157.66,199.61,145,222.69,142.71,228l-.37.81c0-55.53,90.81-82.91,110.63-97.53,17.62-13,20.93-43.83,21.43-50.48C274.74,87,277.68,150.78,214.51,176.48Z"/><path class="cls-4" d="M71.83,176.48c56.85,23.13,68,46.26,70.21,51.58l.3.76c.61-55.53-89.15-82.91-109-97.53-17.62-13-20.84-43.55-21.34-50.2C11.83,84.41,8.66,150.78,71.83,176.48Z"/><path class="cls-5" d="M142.34,228.82s6.5-48.18-18.69-79.95S37.57,134.78,52.46,33.08c0,0-27.26,76.71,23.06,105.58S142.23,201.92,142.34,228.82Z"/><path class="cls-6" d="M142.34,228.82s-5.61-47.19,19.58-79S249,135,234.07,33.25c0,0,26.3,77.52-24,106.4S142.64,201.83,142.34,228.82Z"/><path class="cls-7" d="M135.78,94.26s3.19,9.33,7.51,10.11,18.6,8.87,19.07,14l-.45-6.66s-5.18-9.4-11.94-13a11,11,0,0,0-1.45-.63l-3.92-1.37a3.47,3.47,0,0,0-1.19-.21h0A9.65,9.65,0,0,1,135.78,94.26Z"/><path class="cls-8" d="M139.71,79s-1.43,14.72,3.7,17.51,18,7.6,19,22.06c0,0,1.26.84.19-6S154,100.19,154,100.19a34.7,34.7,0,0,1-8.53-9.66A90.2,90.2,0,0,1,139.71,79Z"/><path class="cls-9" d="M130.73,138.82h21.89v1.86q0,19.17,0,38.34c0,5.77-3.83,9.63-9.62,9.62a22.15,22.15,0,0,1-4.38-.37,9.64,9.64,0,0,1-7.87-9.7q0-19,0-38Z"/><path class="cls-9" d="M218.05,151.18V139.32a14.89,14.89,0,0,1,2-.29c10.19.09,20.39,0,30.57.4,5.48.22,10.73,2,13.35,7.44,2.5,5.24,2.82,10.66-.42,15.83a30.65,30.65,0,0,1-2.75,3.28c.07.11.12.3.25.37,7.07,4.27,8.47,12.63,6.76,19.25S260,197.24,252.63,198c-4.67.47-9.39.56-14.1.64-6.42.11-12.84.05-19.26.05-.3,0-.59,0-1.2-.08v-33l-.22-.08c-.19.44-.4.87-.58,1.31-2.81,6.79-8.06,10.45-15.19,11.29-3.78.45-7.64.3-11.46.4-1.29,0-2.58,0-4.1,0V198.3H150l-.06-.16c1.18-.3,2.37-.58,3.54-.91,10.76-3,16.64-10.69,16.82-22.2q.27-16.87.27-33.75c0-1.83.59-2.31,2.31-2.29,9.19.15,18.38,0,27.57.34,7.9.26,13.74,4,17,11.37.09.2.21.38.31.57Zm-31.38.83v13.72c7.07,0,6.34.07,11.76.07,2.84-.25,4.2-2.62,4.68-5.35.71-4-1-8.1-4.27-8.44Zm47.56,33.29c4,0,7.88,0,11.75,0a15.66,15.66,0,0,0,2.46-.25c2.9-.53,4-2,4-5.25,0-3.51-1.27-5.54-4.2-5.69-4.62-.23-9.26-.06-14-.06Zm-.13-32.57v8.88c2.92,0,5.72,0,8.53,0a29.86,29.86,0,0,0,4.73-.36c2-.36,2.94-2,2.88-4.6-.05-2.25-1-3.78-3-3.86C242.9,152.61,238.56,152.73,234.1,152.73Z"/><path class="cls-9" d="M114,139.11v13.62H85.56v8.94h25v14.49h-25v8.46h1.93c9,0,18,0,27.05,0a4.22,4.22,0,0,1,4.14,2.34c3.15,5.64,8.19,8.76,14.3,10.37a12.94,12.94,0,0,1,2.91,1h-66V190c-.86,1-1.38,1.72-1.94,2.35a21.21,21.21,0,0,1-13,6.91c-7.19,1.17-14.34,1.26-21.11-1.89-7.43-3.46-11.74-9.22-12.29-17.53a26.64,26.64,0,0,1,.23-3.59c4.64.74,9.1,1.39,13.53,2.22a2.64,2.64,0,0,1,1.76,1.63c.82,4.1,3.53,5.94,7.36,6.5a18,18,0,0,0,8.72-.62c2.38-.84,3.59-2.31,3.59-4.28s-1.15-3.25-3.61-4c-5.49-1.72-11-3.33-16.49-5.08-3.32-1.06-6.51-2.39-9-5-6.23-6.58-5.41-18.48,1.7-24.17,6.17-4.94,13.26-6.4,20.92-5.24a47.57,47.57,0,0,1,5.48,1.23,22,22,0,0,1,10,5.86,15.24,15.24,0,0,1,3.39,5.14,1.84,1.84,0,0,0,.63.9V139.11ZM69.78,159.58c-4.12-.61-8.17-1.27-12.23-1.78-1.38-3.89-3.47-5.59-4.68-6.27-4.1-2.33-7.67-2-11.24-.37a5.15,5.15,0,0,0-2.54,4.61,2.88,2.88,0,0,0,2.38,2.69c.67.22,1.33.48,2,.67,3.51,1,7,2,10.52,2.88,5.95,1.55,11.66,3.51,15.79,8.91Z"/><path class="cls-9" d="M127.11,237.41a21,21,0,0,1-6.74-.89c-5.17-1.66-7.69-5.56-8.23-10.79a19.64,19.64,0,0,1,.13-5.47c1.21-6.73,5.72-10.52,13.15-10.89a29.38,29.38,0,0,1,8.15.72c4.93,1.16,8.18,4.34,9.05,9.43.91,5.33.73,10.55-3.67,14.57C136.24,236.58,130.63,237.41,127.11,237.41Zm5.47-12.28a13.17,13.17,0,0,0,0-3.26,14.6,14.6,0,0,0-.28-1.63c-.67-2.83-2.17-4.05-4.84-4a4.36,4.36,0,0,0-4.7,4.16,22.9,22.9,0,0,0,0,6.51c.37,2.55,2.11,3.8,4.61,3.85s4.2-1.16,4.85-3.8A17.8,17.8,0,0,0,132.58,225.13Z"/><path class="cls-9" d="M143.88,218.7c.21-4.06,2.2-6.63,5.59-7.92a25.92,25.92,0,0,1,17.59-.2,7,7,0,0,1,5.17,6.44c.27,3.57-.85,6.66-4.14,8.32a55.76,55.76,0,0,1-7.55,2.65c-1.75.58-3.51,1.11-5.26,1.67l.12.54h17c0,2.35-.17,4.91-.17,7.21H142.89c0-5.06,1.58-9.51,6-12,2.65-1.48,5.57-2.45,8.35-3.67a19.79,19.79,0,0,0,3.75-1.84,2.86,2.86,0,0,0,1-2.29,2.75,2.75,0,0,0-1.57-1.73c-2.58-1.11-4.82-.26-6.31,2.14a1.42,1.42,0,0,1-1,.62C150.1,218.72,147.11,218.7,143.88,218.7Z"/><path class="cls-9" d="M82.82,219.07A8.05,8.05,0,0,1,88,211.2c4.11-1.76,8.44-1.8,12.78-1.38a21.66,21.66,0,0,1,4.64,1c3,1,5.13,2.9,5.48,6.19.4,3.67-.6,6.94-4.06,8.7a55.19,55.19,0,0,1-7.54,2.66c-1.76.58-3.54,1.1-5.3,1.65l.09.48h17v6.91H81.51c-.17-4.22,1.07-7.92,4.5-10.39a49.17,49.17,0,0,1,7.9-4.09c1.65-.78,3.42-1.29,5.08-2,1.14-.53,2.06-1.36,1.79-2.86s-1.49-1.82-2.7-2c-2.45-.44-3.94.31-5.23,2.47a1.41,1.41,0,0,1-1,.61C88.9,219.09,85.91,219.07,82.82,219.07Z"/><path class="cls-7" d="M60.48,220.47A5.5,5.5,0,1,1,55,225.94,5.41,5.41,0,0,1,60.48,220.47Z"/><path class="cls-7" d="M222.36,231.47a5.5,5.5,0,1,1,5.5-5.4A5.41,5.41,0,0,1,222.36,231.47Z"/><path class="cls-9" d="M175.54,218.42c.21-4.07,2.2-6.64,5.59-7.92a25.78,25.78,0,0,1,17.58-.2,7,7,0,0,1,5.18,6.43c.27,3.57-.86,6.66-4.15,8.32a56.7,56.7,0,0,1-7.55,2.66c-1.74.58-3.5,1.11-5.26,1.66l.12.54c5.64,0,11.38-.21,17.12-.21v7.71H174.45c0-5.06,1.67-9.79,6.07-12.25,2.64-1.47,5.56-2.45,8.34-3.67a19.17,19.17,0,0,0,3.75-1.83,2.93,2.93,0,0,0,1-2.3,2.82,2.82,0,0,0-1.58-1.73c-2.57-1.1-4.81-.25-6.31,2.15a1.41,1.41,0,0,1-.95.61C181.75,218.44,178.77,218.42,175.54,218.42Z"/></g></g></svg>