<svg xmlns="http://www.w3.org/2000/svg" xmlns:xlink="http://www.w3.org/1999/xlink" viewBox="0 0 262.56 204.33"><defs><style>.cls-1{fill:url(#Degradado_sin_nombre_2);}.cls-2{fill:url(#Degradado_sin_nombre_9);}.cls-3{fill:url(#Degradado_sin_nombre_260);}.cls-4{fill:url(#Degradado_sin_nombre_260-2);}.cls-5{fill:url(#Degradado_sin_nombre_9-2);}.cls-6{fill:#fabb10;}.cls-7{fill:#ec6c1c;}.cls-8{fill:#fff;}</style><linearGradient id="Degradado_sin_nombre_2" x1="60.27" y1="97.3" x2="254.66" y2="97.3" gradientUnits="userSpaceOnUse"><stop offset="0.06" stop-color="#70210d"/><stop offset="0.63" stop-color="#dc0c15"/></linearGradient><linearGradient id="Degradado_sin_nombre_9" x1="196.48" y1="195.74" x2="196.48" y2="47.73" gradientUnits="userSpaceOnUse"><stop offset="0" stop-color="#dc0c15"/><stop offset="0.86" stop-color="#70210d"/></linearGradient><linearGradient id="Degradado_sin_nombre_260" x1="65.2" y1="195.74" x2="65.2" y2="48.01" gradientUnits="userSpaceOnUse"><stop offset="0" stop-color="#70210d"/><stop offset="0.7" stop-color="#dc0c15"/></linearGradient><linearGradient id="Degradado_sin_nombre_260-2" x1="82.14" y1="195.74" x2="82.14" y2="0" xlink:href="#Degradado_sin_nombre_260"/><linearGradient id="Degradado_sin_nombre_9-2" x1="179.42" y1="195.74" x2="179.42" y2="0.17" xlink:href="#Degradado_sin_nombre_9"/></defs><g id="Layer_2" data-name="Layer 2"><g id="Capa_1" data-name="Capa 1"><path class="cls-1" d="M262.45,47.77s-.8,20.3-28.57,41.23c-4.9,3.7-16.78,8.51-29.35,12.55C245.54,70.9,222.14.25,222.14.25s8.24,31-42.49,72.71c-15.41,12.69-22.46,21.38-30.07,29.32-3.4,3.55-6.2,1-9.89-7.1-2.74-6-4-15.58,3.06-13.76,6,1.54,7.37,3.28,7.64,3.76a.14.14,0,0,0,.23,0c.22-.31.35-1.38-.07-5.32-.62-5.7-7.24-11.22-9.83-12.9s-10.34-11.8-12.93-20.2c0,0,10.5,23.29,3.57,24.53a26.7,26.7,0,0,0-8.61,14.54c-1.91,8.48-4.66,13.45-7.39,16.43-.75.82-2.31,1.07-3.93-1C104.85,92.8,96.4,84,83,73,32.29,31.2,40.49.11,40.49.11s-25.57,79.12,25,106.65C50,101.06,34.34,93.19,28.79,89,1,68.07.23,47.77.23,47.77s-5,69.15,59.78,95.51c54.67,22.24,67.65,44.76,70.25,51.17l.29,0c2.25-5.32,15.26-28.08,72.11-51.21C267.46,116.92,262.45,47.77,262.45,47.77Z"/><path class="cls-2" d="M202.56,143.4c-56.85,23.13-69.56,46.22-71.8,51.53l-.37.81c0-55.53,90.81-82.9,110.63-97.53,17.62-13,20.93-43.83,21.43-50.48C262.79,53.88,265.73,117.7,202.56,143.4Z"/><path class="cls-3" d="M59.88,143.4c56.85,23.13,68,46.26,70.21,51.58l.3.76c.61-55.53-89.15-82.9-109-97.53C3.8,85.21.58,54.66.08,48-.12,51.33-3.29,117.7,59.88,143.4Z"/><path class="cls-4" d="M130.39,195.74s6.5-48.17-18.69-79.95S25.62,101.7,40.51,0c0,0-27.25,76.71,23.06,105.59S130.28,168.84,130.39,195.74Z"/><path class="cls-5" d="M130.39,195.74s-5.61-47.19,19.59-79S237,101.87,222.12.17c0,0,26.3,77.52-24,106.4S130.69,168.75,130.39,195.74Z"/><path class="cls-6" d="M123.83,61.18s3.19,9.33,7.51,10.11,18.6,8.87,19.07,14L150,78.62s-5.18-9.4-11.94-13a9.73,9.73,0,0,0-1.45-.62l-3.92-1.38a4,4,0,0,0-1.19-.21h0A9.65,9.65,0,0,1,123.83,61.18Z"/><path class="cls-7" d="M127.76,45.87s-1.43,14.72,3.7,17.51,18,7.6,19,22.06c0,0,1.26.84.19-6s-8.52-12.33-8.52-12.33a34.52,34.52,0,0,1-8.53-9.66A90.2,90.2,0,0,1,127.76,45.87Z"/><path class="cls-8" d="M118.78,105.74h21.89v1.86q0,19.17,0,38.35c0,5.77-3.83,9.62-9.62,9.62a22.94,22.94,0,0,1-4.38-.38,9.63,9.63,0,0,1-7.87-9.7q0-19,0-38Z"/><path class="cls-8" d="M206.1,118.1V106.24a13.41,13.41,0,0,1,2-.28c10.19.08,20.39,0,30.57.39,5.48.23,10.73,2,13.35,7.44,2.5,5.24,2.82,10.66-.42,15.83a30.65,30.65,0,0,1-2.75,3.28c.07.11.12.3.25.37,7.07,4.27,8.47,12.64,6.76,19.25s-7.82,11.65-15.2,12.4c-4.67.48-9.39.57-14.1.65-6.42.1-12.84,0-19.26.05-.3,0-.59-.05-1.2-.09V132.58l-.22-.07c-.19.43-.4.86-.58,1.3-2.81,6.79-8.06,10.45-15.19,11.29-3.78.45-7.64.3-11.46.4-1.29,0-2.58,0-4.1,0v19.73H138l-.06-.17c1.18-.3,2.37-.58,3.54-.9,10.76-3,16.64-10.7,16.82-22.2q.27-16.87.27-33.76c0-1.83.59-2.31,2.31-2.28,9.19.14,18.38,0,27.57.33,7.9.26,13.74,4,17,11.37.09.2.21.38.31.57Zm-31.38.83v13.72c7.07,0,6.34.08,11.76.08,2.84-.26,4.2-2.63,4.68-5.36.71-4.05-1-8.1-4.27-8.44Zm47.56,33.29c4,0,7.88,0,11.75,0a15.66,15.66,0,0,0,2.46-.25c2.9-.53,4-2,4-5.25,0-3.51-1.27-5.53-4.2-5.68-4.62-.24-9.26-.07-14-.07Zm-.13-32.57v8.88c2.92,0,5.72,0,8.53,0a31.09,31.09,0,0,0,4.73-.35c2-.37,2.94-2,2.88-4.61,0-2.24-1-3.78-3-3.86C231,119.53,226.61,119.65,222.15,119.65Z"/><path class="cls-8" d="M102,106v13.62H73.61v8.94h25v14.49h-25v8.46h1.93c9,0,18,0,27.05,0a4.19,4.19,0,0,1,4.14,2.33c3.15,5.64,8.19,8.76,14.3,10.37a12.94,12.94,0,0,1,2.91,1H58v-8.4c-.85,1-1.37,1.72-1.94,2.36a21.25,21.25,0,0,1-13,6.9c-7.19,1.18-14.34,1.26-21.11-1.89C14.51,160.78,10.2,155,9.65,146.71a26.64,26.64,0,0,1,.23-3.59c4.64.74,9.1,1.39,13.53,2.22A2.66,2.66,0,0,1,25.17,147c.82,4.1,3.53,5.94,7.36,6.5a17.93,17.93,0,0,0,8.72-.62c2.38-.84,3.6-2.31,3.59-4.28s-1.15-3.25-3.61-4c-5.49-1.73-11-3.34-16.49-5.09-3.32-1.05-6.51-2.39-9-5-6.23-6.58-5.41-18.48,1.7-24.17,6.17-4.94,13.26-6.4,20.92-5.23a43.72,43.72,0,0,1,5.48,1.23,22,22,0,0,1,10,5.85,15.34,15.34,0,0,1,3.39,5.14,1.86,1.86,0,0,0,.63.91V106ZM57.83,126.5c-4.12-.61-8.17-1.27-12.23-1.78-1.38-3.89-3.47-5.59-4.68-6.27a11.55,11.55,0,0,0-11.24-.37,5.15,5.15,0,0,0-2.54,4.61,2.88,2.88,0,0,0,2.38,2.69c.67.22,1.33.48,2,.67,3.51,1,7,2,10.52,2.88,6,1.55,11.66,3.51,15.79,8.92Z"/><path class="cls-8" d="M115.16,204.33a21.26,21.26,0,0,1-6.74-.88c-5.17-1.67-7.69-5.57-8.23-10.8a19.65,19.65,0,0,1,.13-5.47c1.21-6.72,5.72-10.51,13.15-10.89a29.76,29.76,0,0,1,8.15.72c4.93,1.16,8.18,4.34,9,9.43.91,5.34.73,10.55-3.67,14.57C124.29,203.5,118.68,204.33,115.16,204.33Zm5.47-12.28a13.17,13.17,0,0,0,0-3.26,14.6,14.6,0,0,0-.28-1.63c-.67-2.83-2.17-4-4.84-4a4.36,4.36,0,0,0-4.7,4.16,23,23,0,0,0,0,6.52c.37,2.54,2.11,3.79,4.61,3.84s4.2-1.15,4.85-3.79A18,18,0,0,0,120.63,192.05Z"/><path class="cls-8" d="M131.93,185.62c.22-4.06,2.2-6.63,5.59-7.91a25.87,25.87,0,0,1,17.59-.21,7,7,0,0,1,5.17,6.44c.27,3.57-.85,6.66-4.14,8.32a55.76,55.76,0,0,1-7.55,2.65c-1.75.58-3.51,1.12-5.26,1.67l.12.54h17c0,2.35-.17,4.92-.17,7.21H130.94c0-5.05,1.58-9.51,6-12,2.65-1.48,5.57-2.45,8.35-3.67a19.17,19.17,0,0,0,3.75-1.83,2.89,2.89,0,0,0,1-2.3,2.75,2.75,0,0,0-1.57-1.73c-2.58-1.11-4.82-.25-6.31,2.15a1.44,1.44,0,0,1-1,.61C138.15,185.64,135.16,185.62,131.93,185.62Z"/><path class="cls-8" d="M70.87,186a8.05,8.05,0,0,1,5.22-7.87c4.11-1.76,8.44-1.8,12.78-1.38a22.29,22.29,0,0,1,4.64,1c3,1,5.13,2.91,5.48,6.19.4,3.67-.6,6.94-4.06,8.7a53.88,53.88,0,0,1-7.54,2.66c-1.76.58-3.54,1.11-5.3,1.65l.09.48h17v6.91H69.56c-.17-4.22,1.07-7.92,4.5-10.39a49.17,49.17,0,0,1,7.9-4.09c1.65-.78,3.42-1.28,5.08-2.05,1.14-.53,2.06-1.36,1.79-2.85s-1.49-1.83-2.7-2.05c-2.45-.44-3.94.32-5.23,2.47a1.37,1.37,0,0,1-1,.61C77,186,74,186,70.87,186Z"/><path class="cls-6" d="M48.53,187.4a5.5,5.5,0,1,1-5.45,5.46A5.4,5.4,0,0,1,48.53,187.4Z"/><path class="cls-6" d="M210.41,198.39a5.5,5.5,0,1,1,5.5-5.4A5.4,5.4,0,0,1,210.41,198.39Z"/><path class="cls-8" d="M163.59,185.34c.21-4.07,2.2-6.63,5.59-7.92a25.84,25.84,0,0,1,17.58-.2,7,7,0,0,1,5.18,6.43c.27,3.57-.86,6.66-4.15,8.32a55.32,55.32,0,0,1-7.55,2.66c-1.74.58-3.5,1.11-5.26,1.66l.12.54c5.64,0,11.38-.21,17.12-.21v7.71H162.5c0-5.05,1.67-9.79,6.07-12.24,2.64-1.48,5.56-2.46,8.34-3.68a19.17,19.17,0,0,0,3.75-1.83,2.93,2.93,0,0,0,1-2.3,2.82,2.82,0,0,0-1.58-1.73c-2.57-1.1-4.81-.25-6.31,2.15a1.38,1.38,0,0,1-1,.61C169.8,185.36,166.82,185.34,163.59,185.34Z"/></g></g></svg>