<svg xmlns="http://www.w3.org/2000/svg" xmlns:xlink="http://www.w3.org/1999/xlink" viewBox="0 0 262.56 195.74"><defs><style>.cls-1{fill:url(#Degradado_sin_nombre_2);}.cls-2{fill:url(#Degradado_sin_nombre_9);}.cls-3{fill:url(#Degradado_sin_nombre_260);}.cls-4{fill:url(#Degradado_sin_nombre_260-2);}.cls-5{fill:url(#Degradado_sin_nombre_9-2);}.cls-6{fill:#fabb10;}.cls-7{fill:#ec6c1c;}</style><linearGradient id="Degradado_sin_nombre_2" x1="60.27" y1="97.3" x2="254.66" y2="97.3" gradientUnits="userSpaceOnUse"><stop offset="0.06" stop-color="#70210d"/><stop offset="0.63" stop-color="#dc0c15"/></linearGradient><linearGradient id="Degradado_sin_nombre_9" x1="196.48" y1="195.74" x2="196.48" y2="47.73" gradientUnits="userSpaceOnUse"><stop offset="0" stop-color="#dc0c15"/><stop offset="0.86" stop-color="#70210d"/></linearGradient><linearGradient id="Degradado_sin_nombre_260" x1="65.2" y1="195.74" x2="65.2" y2="48.01" gradientUnits="userSpaceOnUse"><stop offset="0" stop-color="#70210d"/><stop offset="0.7" stop-color="#dc0c15"/></linearGradient><linearGradient id="Degradado_sin_nombre_260-2" x1="82.14" y1="195.74" x2="82.14" y2="0" xlink:href="#Degradado_sin_nombre_260"/><linearGradient id="Degradado_sin_nombre_9-2" x1="179.42" y1="195.74" x2="179.42" y2="0.17" xlink:href="#Degradado_sin_nombre_9"/></defs><g id="Layer_2" data-name="Layer 2"><g id="Capa_1" data-name="Capa 1"><path class="cls-1" d="M262.45,47.77s-.8,20.3-28.57,41.23c-4.9,3.7-16.78,8.51-29.35,12.55C245.54,70.9,222.14.25,222.14.25s8.24,31-42.49,72.71c-15.41,12.69-22.46,21.38-30.07,29.32-3.4,3.55-6.2,1-9.89-7.1-2.74-6-4-15.58,3.06-13.76,6,1.54,7.37,3.28,7.64,3.76a.14.14,0,0,0,.23,0c.22-.31.35-1.38-.07-5.32-.62-5.7-7.24-11.22-9.83-12.9s-10.34-11.8-12.93-20.2c0,0,10.5,23.29,3.57,24.53a26.7,26.7,0,0,0-8.61,14.54c-1.91,8.48-4.66,13.45-7.39,16.43-.75.82-2.31,1.07-3.93-1C104.85,92.8,96.4,84,83,73,32.29,31.2,40.49.11,40.49.11s-25.57,79.12,25,106.65C50,101.06,34.34,93.19,28.79,89,1,68.07.23,47.77.23,47.77s-5,69.15,59.78,95.51c54.67,22.24,67.65,44.76,70.25,51.17l.29,0c2.25-5.32,15.26-28.08,72.11-51.21C267.46,116.92,262.45,47.77,262.45,47.77Z"/><path class="cls-2" d="M202.56,143.4c-56.85,23.13-69.56,46.22-71.8,51.53l-.37.81c0-55.53,90.81-82.9,110.63-97.53,17.62-13,20.93-43.83,21.43-50.48C262.79,53.88,265.73,117.7,202.56,143.4Z"/><path class="cls-3" d="M59.88,143.4c56.85,23.13,68,46.26,70.21,51.58l.3.76c.61-55.53-89.15-82.9-109-97.53C3.8,85.21.58,54.66.08,48-.12,51.33-3.29,117.7,59.88,143.4Z"/><path class="cls-4" d="M130.39,195.74s6.5-48.17-18.69-79.95S25.62,101.7,40.51,0c0,0-27.25,76.71,23.06,105.59S130.28,168.84,130.39,195.74Z"/><path class="cls-5" d="M130.39,195.74s-5.61-47.19,19.59-79S237,101.87,222.12.17c0,0,26.3,77.52-24,106.4S130.69,168.75,130.39,195.74Z"/><path class="cls-6" d="M123.83,61.18s3.19,9.33,7.51,10.11,18.6,8.87,19.07,14L150,78.62s-5.18-9.4-11.94-13a9.73,9.73,0,0,0-1.45-.62l-3.92-1.38a4,4,0,0,0-1.19-.21h0A9.65,9.65,0,0,1,123.83,61.18Z"/><path class="cls-7" d="M127.76,45.87s-1.43,14.72,3.7,17.51,18,7.6,19,22.06c0,0,1.26.84.19-6s-8.52-12.33-8.52-12.33a34.52,34.52,0,0,1-8.53-9.66A90.2,90.2,0,0,1,127.76,45.87Z"/></g></g></svg>