<svg xmlns="http://www.w3.org/2000/svg" xmlns:xlink="http://www.w3.org/1999/xlink" viewBox="0 0 262.56 206.17"><defs><style>.cls-1{fill:#fff;}.cls-2{fill:url(#Degradado_sin_nombre_2);}.cls-3{fill:url(#Degradado_sin_nombre_9);}.cls-4{fill:url(#Degradado_sin_nombre_260);}.cls-5{fill:url(#Degradado_sin_nombre_260-2);}.cls-6{fill:url(#Degradado_sin_nombre_9-2);}.cls-7{fill:#fabb10;}.cls-8{fill:#ec6c1c;}.cls-9{fill:#1d1d1b;}</style><linearGradient id="Degradado_sin_nombre_2" x1="60.27" y1="97.3" x2="254.66" y2="97.3" gradientUnits="userSpaceOnUse"><stop offset="0.06" stop-color="#70210d"/><stop offset="0.63" stop-color="#dc0c15"/></linearGradient><linearGradient id="Degradado_sin_nombre_9" x1="196.48" y1="195.74" x2="196.48" y2="47.73" gradientUnits="userSpaceOnUse"><stop offset="0" stop-color="#dc0c15"/><stop offset="0.86" stop-color="#70210d"/></linearGradient><linearGradient id="Degradado_sin_nombre_260" x1="65.2" y1="195.74" x2="65.2" y2="48.01" gradientUnits="userSpaceOnUse"><stop offset="0" stop-color="#70210d"/><stop offset="0.7" stop-color="#dc0c15"/></linearGradient><linearGradient id="Degradado_sin_nombre_260-2" x1="82.14" y1="195.74" x2="82.14" y2="0" xlink:href="#Degradado_sin_nombre_260"/><linearGradient id="Degradado_sin_nombre_9-2" x1="179.42" y1="195.74" x2="179.42" y2="0.17" xlink:href="#Degradado_sin_nombre_9"/></defs><g id="Layer_2" data-name="Layer 2"><g id="Capa_1" data-name="Capa 1"><path class="cls-2" d="M262.45,47.77s-.8,20.3-28.57,41.23c-4.9,3.7-16.78,8.51-29.35,12.55C245.54,70.9,222.14.25,222.14.25s8.24,31-42.49,72.71c-15.41,12.69-22.46,21.38-30.07,29.32-3.4,3.55-6.2,1-9.89-7.1-2.74-6-4-15.58,3.06-13.76,6,1.54,7.37,3.28,7.64,3.76a.14.14,0,0,0,.23,0c.22-.31.35-1.38-.07-5.32-.62-5.7-7.24-11.22-9.83-12.9s-10.34-11.8-12.93-20.2c0,0,10.5,23.29,3.57,24.53a26.7,26.7,0,0,0-8.61,14.54c-1.91,8.48-4.66,13.45-7.39,16.43-.75.82-2.31,1.07-3.93-1C104.85,92.8,96.4,84,83,73,32.29,31.2,40.49.11,40.49.11s-25.57,79.12,25,106.65C50,101.06,34.34,93.19,28.79,89,1,68.07.23,47.77.23,47.77s-5,69.15,59.78,95.51c54.67,22.24,67.65,44.76,70.25,51.17l.29,0c2.25-5.32,15.26-28.08,72.11-51.21C267.46,116.92,262.45,47.77,262.45,47.77Z"/><path class="cls-3" d="M202.56,143.4c-56.85,23.13-69.56,46.22-71.8,51.53l-.37.81c0-55.53,90.81-82.9,110.63-97.53,17.62-13,20.93-43.83,21.43-50.48C262.79,53.88,265.73,117.7,202.56,143.4Z"/><path class="cls-4" d="M59.88,143.4c56.85,23.13,68,46.26,70.21,51.58l.3.76c.61-55.53-89.15-82.9-109-97.53C3.8,85.21.58,54.66.08,48-.12,51.33-3.29,117.7,59.88,143.4Z"/><path class="cls-5" d="M130.39,195.74s6.5-48.17-18.69-79.95S25.62,101.7,40.51,0c0,0-27.25,76.71,23.06,105.59S130.28,168.84,130.39,195.74Z"/><path class="cls-6" d="M130.39,195.74s-5.61-47.19,19.59-79S237,101.87,222.12.17c0,0,26.3,77.52-24,106.4S130.69,168.75,130.39,195.74Z"/><path class="cls-7" d="M123.83,61.18s3.19,9.33,7.51,10.11,18.6,8.87,19.07,14L150,78.62s-5.18-9.4-11.94-13a9.73,9.73,0,0,0-1.45-.62l-3.92-1.38a4,4,0,0,0-1.19-.21h0A9.65,9.65,0,0,1,123.83,61.18Z"/><path class="cls-8" d="M127.76,45.87s-1.43,14.72,3.7,17.51,18,7.6,19,22.06c0,0,1.26.84.19-6s-8.52-12.33-8.52-12.33a34.52,34.52,0,0,1-8.53-9.66A90.2,90.2,0,0,1,127.76,45.87Z"/><path class="cls-1" d="M118.78,105.74h21.89v1.86q0,19.17,0,38.35c0,5.77-3.83,9.62-9.62,9.62a22.94,22.94,0,0,1-4.38-.38,9.63,9.63,0,0,1-7.87-9.7q0-19,0-38Z"/><path class="cls-9" d="M131.05,156.81h0a22.55,22.55,0,0,1-4.63-.4,10.88,10.88,0,0,1-8.87-10.92q0-13.56,0-27.13V104.49h24.39v14.07q0,13.69,0,27.39a10.31,10.31,0,0,1-10.86,10.86ZM120,107v11.37q0,13.56,0,27.13a8.33,8.33,0,0,0,6.87,8.47,20.52,20.52,0,0,0,4.13.35h0a7.82,7.82,0,0,0,8.36-8.37q0-13.69,0-27.38V107Z"/><path class="cls-1" d="M206.1,118.1V106.24a13.41,13.41,0,0,1,2-.28c10.19.08,20.39,0,30.57.39,5.48.23,10.73,2,13.35,7.44,2.5,5.24,2.82,10.66-.42,15.83a30.65,30.65,0,0,1-2.75,3.28c.07.11.12.3.25.37,7.07,4.27,8.47,12.64,6.76,19.25s-7.82,11.65-15.2,12.4c-4.67.48-9.39.57-14.1.65-6.42.1-12.84,0-19.26.05-.3,0-.59-.05-1.2-.09V132.58l-.22-.07c-.19.43-.4.86-.58,1.3-2.81,6.79-8.06,10.45-15.19,11.29-3.78.45-7.64.3-11.46.4-1.29,0-2.58,0-4.1,0v19.73H138l-.06-.17c1.18-.3,2.37-.58,3.54-.9,10.76-3,16.64-10.7,16.82-22.2q.27-16.87.27-33.76c0-1.83.59-2.31,2.31-2.28,9.19.14,18.38,0,27.57.33,7.9.26,13.74,4,17,11.37.09.2.21.38.31.57Zm-31.38.83v13.72c7.07,0,6.34.08,11.76.08,2.84-.26,4.2-2.63,4.68-5.36.71-4.05-1-8.1-4.27-8.44Zm47.56,33.29c4,0,7.88,0,11.75,0a15.66,15.66,0,0,0,2.46-.25c2.9-.53,4-2,4-5.25,0-3.51-1.27-5.53-4.2-5.68-4.62-.24-9.26-.07-14-.07Zm-.13-32.57v8.88c2.92,0,5.72,0,8.53,0a31.09,31.09,0,0,0,4.73-.35c2-.37,2.94-2,2.88-4.61,0-2.24-1-3.78-3-3.86C231,119.53,226.61,119.65,222.15,119.65Z"/><path class="cls-9" d="M217.53,166.88H207.32l-.75-.05-1.7-.13V137.45c-3.13,5.13-8,8.12-14.59,8.89a75.79,75.79,0,0,1-8.22.36c-1.12,0-2.24,0-3.36.05-.88,0-1.77,0-2.72,0h-.16v19.72H137.17l-.85-2.29,2.47-.62c.8-.2,1.59-.4,2.38-.62,10.24-2.87,15.74-10.14,15.91-21s.26-21.87.27-33.74a3,3,0,0,1,3.58-3.53c3.51,0,7,.07,10.51.09,5.6,0,11.38.06,17.08.24,7.14.23,12.72,3.25,16.33,8.79v-8.63l1.07-.16.61-.1a8.77,8.77,0,0,1,1.61-.19l8.31,0c7.31,0,14.86,0,22.29.35,7.12.29,12,3,14.42,8.15,2.94,6.12,2.77,11.86-.48,17a17.32,17.32,0,0,1-2,2.42l-.06.07c7.26,5,8,13.83,6.44,20.05-1.86,7.17-8.4,12.53-16.28,13.33-4.84.5-9.82.58-14.21.66C223.59,166.87,220.54,166.88,217.53,166.88Zm-9.34-2.51h4.69c4.49,0,9.13,0,13.68-.05,4.34-.08,9.26-.16,14-.64,6.73-.69,12.54-5.41,14.11-11.48,1.46-5.63.71-13.69-6.2-17.86a1.68,1.68,0,0,1-.66-.78l-.5-.77.61-.7c.31-.37.63-.72,1-1.07a14.72,14.72,0,0,0,1.69-2.06c2.77-4.41,2.89-9.33.35-14.63-2-4.27-6.06-6.48-12.27-6.73-7.39-.31-14.92-.33-22.2-.35l-8.33,0a3.51,3.51,0,0,0-.76.08V119l-2.13.68-.58-1a5.21,5.21,0,0,1-.28-.52c-3-6.81-8.38-10.38-15.92-10.63-5.66-.18-11.43-.21-17-.24-3.51,0-7,0-10.54-.09-.76,0-.92.1-.92.1h0a2,2,0,0,0-.12.94c0,11.87-.1,22.92-.27,33.77-.17,10.62-4.92,18.15-13.81,22h27.55V144.25H176c.92,0,1.78,0,2.64,0,1.13,0,2.27,0,3.41-.05a69.92,69.92,0,0,0,7.93-.34c6.86-.81,11.63-4.35,14.18-10.53.13-.32.28-.63.42-.94l.64-1.42,2.15.7v32.7Zm20.34-10.9H221V139.71h1.25c1.41,0,2.81,0,4.21,0,3.23,0,6.58-.07,9.86.1,2.45.12,5.37,1.43,5.38,6.92,0,3.86-1.54,5.86-5,6.49a16.76,16.76,0,0,1-2.67.27Zm-5-2.5h1.91c2.9,0,5.74,0,8.59,0a13.72,13.72,0,0,0,2.23-.23c2-.37,3-1.06,3-4,0-3.77-1.52-4.36-3-4.44-3.2-.16-6.36-.12-9.71-.09l-3,0Zm-37-17h-.06c-2.55,0-3.74,0-5,0-1.44,0-3,0-6.74,0h-1.25V117.68H187a5.47,5.47,0,0,1,3.87,2.26,10,10,0,0,1,1.5,7.64c-.67,3.85-2.73,6.12-5.79,6.39ZM176,131.4c2.88,0,4.25,0,5.52,0s2.44,0,4.93,0c1.86-.2,3-1.65,3.51-4.33a7.59,7.59,0,0,0-1-5.7,3,3,0,0,0-2.08-1.27H176Zm51.26-1.6H220.9V118.4h1.25l3.87,0c3.06,0,6.21,0,9.3.07,2.58.11,4.16,2,4.22,5.09.09,4.47-2.41,5.59-3.91,5.86a32.55,32.55,0,0,1-4.93.37C229.54,129.79,228.39,129.8,227.23,129.8Zm-3.83-2.51h1.33c2,0,4,0,5.92,0a29.26,29.26,0,0,0,4.54-.33c.52-.1,1.91-.35,1.85-3.35,0-2.57-1.38-2.62-1.82-2.64-3-.12-6-.09-9.18-.07l-2.64,0Z"/><path class="cls-1" d="M102,106v13.62H73.61v8.94h25v14.49h-25v8.46h1.93c9,0,18,0,27.05,0a4.19,4.19,0,0,1,4.14,2.33c3.15,5.64,8.19,8.76,14.3,10.37a12.94,12.94,0,0,1,2.91,1H58v-8.4c-.85,1-1.37,1.72-1.94,2.36a21.25,21.25,0,0,1-13,6.9c-7.19,1.18-14.34,1.26-21.11-1.89C14.51,160.78,10.2,155,9.65,146.71a26.64,26.64,0,0,1,.23-3.59c4.64.74,9.1,1.39,13.53,2.22A2.66,2.66,0,0,1,25.17,147c.82,4.1,3.53,5.94,7.36,6.5a17.93,17.93,0,0,0,8.72-.62c2.38-.84,3.6-2.31,3.59-4.28s-1.15-3.25-3.61-4c-5.49-1.73-11-3.34-16.49-5.09-3.32-1.05-6.51-2.39-9-5-6.23-6.58-5.41-18.48,1.7-24.17,6.17-4.94,13.26-6.4,20.92-5.23a43.72,43.72,0,0,1,5.48,1.23,22,22,0,0,1,10,5.85,15.34,15.34,0,0,1,3.39,5.14,1.86,1.86,0,0,0,.63.91V106ZM57.83,126.5c-4.12-.61-8.17-1.27-12.23-1.78-1.38-3.89-3.47-5.59-4.68-6.27a11.55,11.55,0,0,0-11.24-.37,5.15,5.15,0,0,0-2.54,4.61,2.88,2.88,0,0,0,2.38,2.69c.67.22,1.33.48,2,.67,3.51,1,7,2,10.52,2.88,6,1.55,11.66,3.51,15.79,8.92Z"/><path class="cls-9" d="M34.62,168.13a30.39,30.39,0,0,1-13.21-2.76c-8.06-3.75-12.43-10-13-18.58a15,15,0,0,1,.12-2.6c0-.38.08-.76.11-1.16l.1-1.36,1.34.21,3.43.54c3.5.55,6.8,1.06,10.14,1.69a3.84,3.84,0,0,1,2.75,2.62c.66,3.26,2.61,5,6.32,5.5a16.69,16.69,0,0,0,8.12-.56c2.77-1,2.76-2.57,2.76-3.1,0-.84-.29-2.06-2.73-2.83s-5.1-1.58-7.65-2.35c-3-.9-5.91-1.8-8.85-2.73-3.16-1-6.76-2.43-9.52-5.35a18.41,18.41,0,0,1,1.82-26c6.15-4.91,13.51-6.76,21.89-5.49a46.66,46.66,0,0,1,5.64,1.26,23.4,23.4,0,0,1,10.56,6.19,21.83,21.83,0,0,1,1.86,2.24v-8.72h46.68V120.9H74.86v6.44h25v17h-25v6h7.73q10,0,20,0h0a5.43,5.43,0,0,1,5.2,3c2.73,4.89,7.16,8.09,13.52,9.77a15,15,0,0,1,3.19,1.13l4.47,2.36H56.71v-6.19a22.6,22.6,0,0,1-13.46,7A53.67,53.67,0,0,1,34.62,168.13ZM11,144.56a11.42,11.42,0,0,0-.1,2.07c.5,7.6,4.4,13.14,11.57,16.47,5.63,2.63,11.92,3.18,20.38,1.8a19.83,19.83,0,0,0,12.23-6.5c.36-.4.7-.82,1.12-1.34l3-3.69V164H116.5a21.59,21.59,0,0,1-10.83-9.54,3,3,0,0,0-3-1.69q-10,0-20,0H72.39v-11h25v-12h-25V118.4h28.43V107.28H59.11v13.47l-2-1.59a3.13,3.13,0,0,1-1-1.46A14.11,14.11,0,0,0,52.94,113a20.88,20.88,0,0,0-9.43-5.51,44,44,0,0,0-5.33-1.2c-7.67-1.16-14.38.51-19.95,5a15.89,15.89,0,0,0-1.57,22.34c2.36,2.5,5.46,3.73,8.46,4.68S31,140.1,33.93,141c2.56.78,5.12,1.56,7.68,2.36,3.69,1.17,4.47,3.48,4.48,5.21,0,2.52-1.56,4.46-4.43,5.47a19.19,19.19,0,0,1-9.31.68c-4.72-.7-7.55-3.21-8.41-7.49a1.73,1.73,0,0,0-.76-.65c-3.31-.62-6.59-1.13-10.06-1.68Zm48.08-3-2.24-2.93c-4-5.22-9.66-7.05-15.11-8.47-2.82-.73-5.67-1.53-8.43-2.3l-2.11-.58c-.44-.12-.87-.28-1.3-.43l-.75-.26c-2.07-.66-3.16-1.95-3.24-3.83-.09-2.1,1.11-4.84,3.27-5.8,4.44-2,8.37-1.85,12.36.42a11.9,11.9,0,0,1,5,6.22c2.68.34,5.38.76,8,1.16l3.52.53,1.06.15Zm-24-23.48a12.17,12.17,0,0,0-4.93,1.16,4,4,0,0,0-1.79,3.42c0,.67.3,1.16,1.52,1.55l.82.29c.37.13.75.26,1.13.37l2.11.59c2.75.76,5.59,1.55,8.38,2.28,4.95,1.29,10.07,2.9,14.23,6.86v-7l-2.46-.37c-2.85-.44-5.79-.89-8.68-1.25l-.76-.09-.26-.73c-1.27-3.57-3.12-5-4.12-5.6A10.31,10.31,0,0,0,35.11,118.06Z"/><path class="cls-1" d="M114.45,204.92a21.12,21.12,0,0,1-6.75-.89c-5.16-1.66-7.68-5.56-8.22-10.79a19.34,19.34,0,0,1,.13-5.48c1.21-6.72,5.71-10.51,13.14-10.88a29.34,29.34,0,0,1,8.15.71c4.93,1.17,8.19,4.35,9,9.44.91,5.33.73,10.54-3.66,14.57C123.57,204.09,118,204.92,114.45,204.92Zm5.47-12.28a13.17,13.17,0,0,0,0-3.26c-.07-.56-.15-1.1-.27-1.64-.67-2.82-2.18-4-4.84-4a4.37,4.37,0,0,0-4.71,4.16,23.27,23.27,0,0,0,0,6.51c.37,2.55,2.12,3.79,4.61,3.85s4.21-1.16,4.86-3.8A17.8,17.8,0,0,0,119.92,192.64Z"/><path class="cls-9" d="M114.45,206.17a22.4,22.4,0,0,1-7.13-.95c-5.32-1.71-8.46-5.81-9.09-11.85a20.7,20.7,0,0,1,.15-5.83c1.31-7.28,6.39-11.51,14.31-11.91a30.69,30.69,0,0,1,8.5.75,12.44,12.44,0,0,1,10,10.44c.82,4.83,1.1,11-4.06,15.7C124.2,205.21,118.46,206.17,114.45,206.17Zm-.2-28.08c-.48,0-1,0-1.43,0-6.83.34-10.86,3.66-12,9.86a17.93,17.93,0,0,0-.12,5.12c.52,5,3,8.33,7.37,9.73a19.82,19.82,0,0,0,6.36.83c3.72,0,8.75-.94,11-3,3.38-3.09,4.36-7.11,3.28-13.44-.75-4.44-3.56-7.36-8.1-8.43A28.33,28.33,0,0,0,114.25,178.09Zm.68,21.4h-.2c-3.26-.07-5.38-1.87-5.82-4.92a24.36,24.36,0,0,1,0-6.87,5.63,5.63,0,0,1,5.94-5.23h.06c3.24,0,5.21,1.63,6,5a16.66,16.66,0,0,1,.3,1.76,14.22,14.22,0,0,1,0,3.57,17.83,17.83,0,0,1-.34,2C120.06,197.85,118,199.49,114.93,199.49ZM114.87,185h-.05c-2.08,0-3.18,1-3.48,3.09a21.87,21.87,0,0,0,0,6.15c.26,1.83,1.38,2.74,3.4,2.78s3.11-.81,3.61-2.84a13.53,13.53,0,0,0,.28-1.67h0a11.65,11.65,0,0,0,0-2.95,13.39,13.39,0,0,0-.25-1.5C117.9,185.8,116.93,185,114.87,185Z"/><path class="cls-1" d="M132.93,185.62c.22-4.06,2.2-6.63,5.59-7.91a25.87,25.87,0,0,1,17.59-.21,7,7,0,0,1,5.17,6.44c.27,3.57-.85,6.66-4.14,8.32a55.76,55.76,0,0,1-7.55,2.65c-1.75.58-3.51,1.12-5.26,1.67l.12.54h17c0,2.35-.17,4.92-.17,7.21H131.94c0-5.05,1.58-9.51,6-12,2.65-1.48,5.57-2.45,8.35-3.67a19.17,19.17,0,0,0,3.75-1.83,2.89,2.89,0,0,0,1-2.3,2.75,2.75,0,0,0-1.57-1.73c-2.58-1.11-4.82-.25-6.31,2.15a1.44,1.44,0,0,1-1,.61C139.15,185.64,136.16,185.62,132.93,185.62Z"/><path class="cls-9" d="M162.55,205.58H130.68v-1.26c0-6.22,2.27-10.61,6.61-13a48.25,48.25,0,0,1,5.7-2.58c.92-.38,1.85-.75,2.76-1.15l.92-.39a12.05,12.05,0,0,0,2.59-1.3,1.78,1.78,0,0,0,.46-1.14,2,2,0,0,0-.82-.73c-1.95-.84-3.56-.28-4.76,1.66a2.66,2.66,0,0,1-2,1.2c-2.31,0-4.63,0-7.05,0h-3.48l.07-1.31a9.5,9.5,0,0,1,6.39-9,27.13,27.13,0,0,1,18.42-.23,8.24,8.24,0,0,1,6,7.53c.34,4.47-1.33,7.77-4.83,9.53a34.32,34.32,0,0,1-5.57,2.06l-1.44.44h12v1.25c0,1.2,0,2.45-.09,3.69s-.08,2.39-.08,3.52Zm-29.32-2.5h26.83c0-.77.05-1.56.07-2.35s.06-1.58.08-2.36H143.45l-.59-2.64,2.75-.86c1.19-.37,2.39-.75,3.58-1.14.73-.25,1.47-.47,2.21-.7a30.65,30.65,0,0,0,5.17-1.89c2.56-1.29,3.73-3.68,3.47-7.11a5.73,5.73,0,0,0-4.32-5.34,24.7,24.7,0,0,0-16.76.18,6.82,6.82,0,0,0-4.63,5.51h.77c2.37,0,4.63,0,6.89,0l0,0c1.84-2.94,4.78-3.93,7.85-2.61a3.92,3.92,0,0,1,2.32,2.73,4.08,4.08,0,0,1-1.46,3.45,13.9,13.9,0,0,1-3.11,1.6l-.88.37c-.93.41-1.88.79-2.82,1.17a48.88,48.88,0,0,0-5.42,2.45C135.26,195.29,133.52,198.44,133.23,203.08Z"/><path class="cls-1" d="M68.87,186a8.05,8.05,0,0,1,5.22-7.87c4.11-1.76,8.44-1.8,12.78-1.38a22.29,22.29,0,0,1,4.64,1c3,1,5.13,2.91,5.48,6.19.4,3.67-.6,6.94-4.06,8.7a53.88,53.88,0,0,1-7.54,2.66c-1.76.58-3.54,1.11-5.3,1.65l.09.48h17v6.91H67.56c-.17-4.22,1.07-7.92,4.5-10.39a49.17,49.17,0,0,1,7.9-4.09c1.65-.78,3.42-1.28,5.08-2.05,1.14-.53,2.06-1.36,1.79-2.85s-1.49-1.83-2.7-2.05c-2.45-.44-3.94.32-5.23,2.47a1.37,1.37,0,0,1-1,.61C75,186,72,186,68.87,186Z"/><path class="cls-9" d="M98.46,205.56H66.36l0-1.2c-.21-5.06,1.48-8.91,5-11.46a36.44,36.44,0,0,1,6.3-3.38l1.8-.82c.89-.43,1.81-.77,2.7-1.1s1.62-.6,2.38-.95c1.16-.54,1.17-1,1.09-1.51s-.34-.78-1.69-1C82,183.77,81,184.24,80,186a2.59,2.59,0,0,1-2,1.22c-2.31,0-4.62,0-7,0H67.69l-.06-1.18a9.31,9.31,0,0,1,6-9.09c4.68-2,9.62-1.84,13.39-1.47a22.5,22.5,0,0,1,4.91,1c3.77,1.24,6,3.74,6.34,7.24.5,4.67-1.14,8.11-4.74,9.94a33,33,0,0,1-5.61,2.07l-1.15.36H98.46Zm-29.66-2.5H96v-4.41H79.16l-.52-2.58,2.74-.85c1.2-.37,2.41-.74,3.61-1.14l2.17-.68a31,31,0,0,0,5.2-1.91c2.64-1.33,3.78-3.84,3.39-7.44-.27-2.52-1.79-4.2-4.63-5.14a20,20,0,0,0-4.37-.92c-3.7-.36-8-.49-12.16,1.28a6.92,6.92,0,0,0-4.43,5.47H71c2.3,0,4.56,0,6.82,0l.06,0c1.56-2.61,3.57-3.55,6.51-3,1.06.2,3.27.6,3.7,3.06.23,1.29,0,3.06-2.5,4.2-.85.4-1.72.72-2.56,1s-1.71.63-2.5,1l-1.83.84a34.34,34.34,0,0,0-5.88,3.13A9.84,9.84,0,0,0,68.8,203.06Z"/><path class="cls-7" d="M48.53,187.4a5.5,5.5,0,1,1-5.45,5.46A5.4,5.4,0,0,1,48.53,187.4Z"/><path class="cls-7" d="M210.41,198.39a5.5,5.5,0,1,1,5.5-5.4A5.4,5.4,0,0,1,210.41,198.39Z"/><path class="cls-1" d="M165.59,185.34c.21-4.07,2.2-6.63,5.59-7.92a25.84,25.84,0,0,1,17.58-.2,7,7,0,0,1,5.18,6.43c.27,3.57-.86,6.66-4.15,8.32a55.32,55.32,0,0,1-7.55,2.66c-1.74.58-3.5,1.11-5.26,1.66l.12.54c5.64,0,11.38-.21,17.12-.21v7.71H164.5c0-5.05,1.67-9.79,6.07-12.24,2.64-1.48,5.56-2.46,8.34-3.68a19.17,19.17,0,0,0,3.75-1.83,2.93,2.93,0,0,0,1-2.3,2.82,2.82,0,0,0-1.58-1.73c-2.57-1.1-4.81-.25-6.31,2.15a1.38,1.38,0,0,1-1,.61C171.8,185.36,168.82,185.34,165.59,185.34Z"/><path class="cls-9" d="M195.47,205.58H163.24v-1.26c0-6.29,2.36-10.9,6.71-13.33a49.93,49.93,0,0,1,5.7-2.58c.92-.37,1.84-.75,2.75-1.14l.93-.4a12,12,0,0,0,2.58-1.3,1.74,1.74,0,0,0,.46-1.14,2.08,2.08,0,0,0-.82-.73c-1.95-.84-3.55-.28-4.76,1.66a2.6,2.6,0,0,1-2,1.2c-2.31,0-4.61,0-7,0h-3.51l.07-1.32a9.53,9.53,0,0,1,6.39-9,27.07,27.07,0,0,1,18.42-.22,8.22,8.22,0,0,1,6,7.53c.34,4.47-1.33,7.76-4.83,9.53a33.93,33.93,0,0,1-5.57,2l-1.22.38,2,0c2.84,0,5.77-.11,8.66-.11h1.25Zm-29.68-2.5H193v-5.2c-2.46,0-4.95.05-7.36.1-2.8.05-5.69.1-8.51.1h-1l-.59-2.63,2.71-.85c1.21-.38,2.42-.76,3.62-1.16.73-.24,1.47-.47,2.21-.69a33,33,0,0,0,5.18-1.89c2.56-1.29,3.72-3.69,3.46-7.11a5.71,5.71,0,0,0-4.31-5.34,24.58,24.58,0,0,0-16.76.18,6.8,6.8,0,0,0-4.64,5.5h.81c2.35,0,4.6,0,6.85,0l.06,0c1.83-3,4.77-3.93,7.84-2.62a3.92,3.92,0,0,1,2.33,2.74,4.14,4.14,0,0,1-1.47,3.45,14,14,0,0,1-3.1,1.59l-.88.38c-.93.4-1.88.79-2.82,1.17a46.35,46.35,0,0,0-5.42,2.45C167.22,195.39,166,199.56,165.79,203.08Z"/></g></g></svg>