<svg xmlns="http://www.w3.org/2000/svg" xmlns:xlink="http://www.w3.org/1999/xlink" viewBox="0 0 246.9 99.66"><defs><style>.cls-1{fill:url(#Degradado_sin_nombre_725);}.cls-2{fill:#1d1d1b;}.cls-3{fill:#fabb10;}</style><linearGradient id="Degradado_sin_nombre_725" x1="120.09" y1="50.9" x2="120.09" y2="1.08" gradientUnits="userSpaceOnUse"><stop offset="0" stop-color="#b50000"/><stop offset="0.11" stop-color="#b70501"/><stop offset="0.23" stop-color="#bd1402"/><stop offset="0.37" stop-color="#c82c05"/><stop offset="0.52" stop-color="#d64e09"/><stop offset="0.67" stop-color="#e97a0e"/><stop offset="0.83" stop-color="#ffaf14"/><stop offset="0.83" stop-color="#ffaf14"/></linearGradient></defs><g id="Layer_2" data-name="Layer 2"><g id="Capa_1" data-name="Capa 1"><path class="cls-1" d="M109.15,1.08H131V2.93q0,19.17,0,38.35c0,5.77-3.83,9.62-9.62,9.62a22.16,22.16,0,0,1-4.38-.38,9.64,9.64,0,0,1-7.88-9.7q0-19,0-38Z"/><path class="cls-2" d="M196.47,13.43V1.57a13.24,13.24,0,0,1,2-.28c10.19.08,20.39,0,30.57.39,5.47.23,10.72,2,13.34,7.44,2.51,5.24,2.83,10.67-.41,15.84a29.54,29.54,0,0,1-2.76,3.27c.08.11.13.3.25.37,7.08,4.27,8.47,12.64,6.76,19.25s-7.81,11.65-15.19,12.4c-4.67.48-9.4.57-14.1.65-6.42.11-12.84,0-19.27.05-.29,0-.58,0-1.19-.09V27.91l-.22-.07c-.2.43-.4.86-.58,1.3-2.82,6.79-8.06,10.45-15.19,11.29-3.79.45-7.64.3-11.46.4-1.29,0-2.58,0-4.1,0V60.56H128.4l-.06-.17c1.18-.3,2.37-.57,3.54-.9,10.76-3,16.63-10.7,16.81-22.2Q149,20.42,149,3.54c0-1.84.6-2.32,2.32-2.29,9.19.14,18.38,0,27.56.34,7.91.25,13.75,4,17,11.36a6.28,6.28,0,0,0,.31.57Zm-31.38.83V28c7.07,0,6.34.08,11.76.08,2.83-.26,4.2-2.63,4.68-5.36.71-4.05-1-8.1-4.27-8.44Zm47.56,33.29c4,0,7.88,0,11.75,0a14.33,14.33,0,0,0,2.45-.25c2.9-.52,4-2,4-5.25,0-3.5-1.27-5.53-4.2-5.68-4.62-.24-9.27-.07-14-.07ZM212.52,15v8.88c2.91,0,5.72,0,8.52,0a29.9,29.9,0,0,0,4.74-.35c2-.36,2.93-2,2.88-4.61,0-2.24-1-3.78-3-3.85C221.32,14.87,217,15,212.52,15Z"/><path class="cls-2" d="M92.4,1.36V15H64v8.93H89V38.41H64v8.46h1.93c9,0,18,0,27.05,0a4.18,4.18,0,0,1,4.14,2.34c3.14,5.63,8.19,8.75,14.29,10.36a13.2,13.2,0,0,1,2.92,1h-66V52.2c-.86,1-1.38,1.72-1.94,2.36a21.22,21.22,0,0,1-13,6.9c-7.19,1.18-14.34,1.26-21.11-1.89C4.88,56.12.57,50.35,0,42a28.42,28.42,0,0,1,.22-3.59c4.65.74,9.11,1.39,13.54,2.22a2.64,2.64,0,0,1,1.75,1.63c.83,4.1,3.53,5.94,7.37,6.5a17.89,17.89,0,0,0,8.71-.62c2.39-.84,3.6-2.31,3.6-4.28s-1.16-3.25-3.61-4c-5.49-1.73-11-3.34-16.49-5.08-3.32-1.06-6.52-2.4-9-5C-.11,23.2.71,11.3,7.81,5.61,14,.67,21.08-.78,28.73.38a43.48,43.48,0,0,1,5.49,1.23,22,22,0,0,1,10,5.85A15.49,15.49,0,0,1,47.6,12.6a1.84,1.84,0,0,0,.62.91V1.36ZM48.2,21.83C44.07,21.22,40,20.56,36,20.05c-1.39-3.89-3.48-5.59-4.68-6.27-4.1-2.32-7.67-2-11.25-.37A5.17,5.17,0,0,0,17.51,18a2.89,2.89,0,0,0,2.38,2.7c.67.21,1.33.48,2,.66,3.5,1,7,2,10.52,2.88,6,1.55,11.66,3.52,15.79,8.92Z"/><path class="cls-2" d="M105.53,99.66a21.26,21.26,0,0,1-6.74-.88c-5.17-1.67-7.69-5.57-8.23-10.8a19.65,19.65,0,0,1,.13-5.47C91.9,75.79,96.4,72,103.83,71.62a29.84,29.84,0,0,1,8.16.72c4.93,1.16,8.18,4.35,9.05,9.44.9,5.33.72,10.54-3.67,14.57C114.65,98.83,109,99.66,105.53,99.66ZM111,87.38a13.17,13.17,0,0,0,0-3.26,12.59,12.59,0,0,0-.27-1.63c-.67-2.83-2.18-4-4.84-4a4.36,4.36,0,0,0-4.71,4.16,23.28,23.28,0,0,0,0,6.51c.38,2.55,2.12,3.79,4.61,3.85s4.21-1.16,4.86-3.8A18,18,0,0,0,111,87.38Z"/><path class="cls-2" d="M122.3,81c.21-4.07,2.2-6.64,5.59-7.92a25.86,25.86,0,0,1,17.59-.21,7,7,0,0,1,5.17,6.44c.27,3.57-.85,6.66-4.15,8.32A56.21,56.21,0,0,1,139,90.25c-1.74.58-3.5,1.11-5.25,1.66l.12.54h17c0,2.35-.17,4.92-.17,7.21H121.31c0-5,1.58-9.5,6-12,2.64-1.47,5.56-2.45,8.35-3.67a19.45,19.45,0,0,0,3.75-1.83,2.89,2.89,0,0,0,1-2.3,2.83,2.83,0,0,0-1.57-1.73c-2.58-1.11-4.82-.25-6.32,2.15a1.4,1.4,0,0,1-.95.61C128.52,81,125.53,81,122.3,81Z"/><path class="cls-2" d="M61.24,81.32a8.05,8.05,0,0,1,5.22-7.87c4.11-1.76,8.44-1.8,12.78-1.37a21.55,21.55,0,0,1,4.63,1c3,1,5.13,2.91,5.49,6.2.4,3.66-.6,6.93-4.06,8.69a53.56,53.56,0,0,1-7.55,2.66c-1.75.59-3.53,1.11-5.3,1.66l.1.47h17v6.92H59.93c-.18-4.23,1.06-7.93,4.49-10.4a49.27,49.27,0,0,1,7.91-4.09c1.64-.78,3.42-1.28,5.07-2,1.14-.53,2.06-1.36,1.8-2.85s-1.49-1.82-2.7-2c-2.45-.45-4,.31-5.24,2.46a1.35,1.35,0,0,1-1,.61C67.32,81.34,64.33,81.32,61.24,81.32Z"/><path class="cls-3" d="M38.89,82.73a5.5,5.5,0,1,1-5.44,5.46A5.41,5.41,0,0,1,38.89,82.73Z"/><path class="cls-3" d="M200.77,93.73a5.5,5.5,0,1,1,5.51-5.41A5.43,5.43,0,0,1,200.77,93.73Z"/><path class="cls-2" d="M154,80.67c.22-4.07,2.2-6.63,5.59-7.92a25.92,25.92,0,0,1,17.59-.2A7,7,0,0,1,182.31,79c.27,3.58-.86,6.66-4.15,8.33A55.28,55.28,0,0,1,170.61,90c-1.75.58-3.51,1.11-5.26,1.66l.12.54c5.64,0,11.38-.2,17.12-.2v7.7H152.87c0-5,1.67-9.79,6.06-12.24,2.65-1.48,5.57-2.45,8.35-3.68A19.17,19.17,0,0,0,171,81.91a2.89,2.89,0,0,0,1-2.3,2.8,2.8,0,0,0-1.57-1.73c-2.58-1.1-4.82-.25-6.31,2.15a1.37,1.37,0,0,1-1,.61C160.17,80.69,157.18,80.67,154,80.67Z"/></g></g></svg>